<?xml version="1.0" standalone="no"?>
<!DOCTYPE svg PUBLIC "-//W3C//DTD SVG 20010904//EN"
 "http://www.w3.org/TR/2001/REC-SVG-20010904/DTD/svg10.dtd">
<svg version="1.0" xmlns="http://www.w3.org/2000/svg"
 width="1024.000000pt" height="1024.000000pt" viewBox="0 0 1024.000000 1024.000000"
 preserveAspectRatio="xMidYMid meet">

<g transform="translate(0.000000,1024.000000) scale(0.100000,-0.100000)"
fill="#E74E0E" stroke="none">
<path d="M4915 8265 c-88 -30 -241 -79 -340 -110 -187 -59 -484 -153 -880
-280 -126 -40 -353 -112 -504 -158 -151 -47 -280 -92 -286 -99 -7 -7 -16 -27
-20 -45 -10 -48 24 -76 131 -109 49 -15 95 -27 102 -27 9 0 12 -42 12 -173 0
-165 -1 -174 -21 -184 -56 -31 -77 -135 -39 -197 l20 -33 -26 -127 c-14 -71
-28 -159 -31 -198 -5 -63 -3 -72 17 -90 19 -17 38 -20 125 -22 112 -2 163 7
183 34 17 22 12 65 -24 259 l-27 141 21 45 c36 74 25 129 -38 181 l-30 26 0
145 c0 80 4 146 8 146 5 0 31 -6 58 -14 27 -8 191 -53 364 -101 173 -48 551
-155 840 -237 289 -83 543 -154 564 -158 34 -7 128 17 680 175 353 101 729
208 836 238 345 98 644 188 687 207 62 27 72 85 23 121 -14 10 -198 73 -410
139 -391 123 -780 246 -1170 370 -118 38 -301 96 -406 129 -105 34 -207 60
-225 60 -19 -1 -106 -25 -194 -54z"/>
<path d="M3670 6854 l0 -306 23 6 c127 34 473 32 634 -2 272 -59 524 -183 724
-356 l73 -64 76 68 c103 92 209 162 353 230 228 108 360 139 627 147 168 5
270 -2 358 -24 l22 -5 0 306 c0 192 -4 306 -10 306 -5 0 -103 -27 -217 -60
-115 -34 -264 -77 -333 -96 -69 -19 -170 -48 -225 -64 -349 -102 -635 -180
-658 -180 -15 0 -341 90 -724 200 -383 110 -703 200 -710 200 -10 0 -13 -61
-13 -306z"/>
<path d="M3853 6439 c-581 -65 -1017 -424 -1147 -945 -32 -128 -49 -295 -41
-409 8 -112 46 -305 80 -410 35 -107 140 -319 212 -430 152 -232 449 -554 748
-809 348 -297 1036 -778 1343 -938 71 -37 74 -38 109 -23 20 8 97 52 172 97
401 240 688 435 1016 687 492 380 846 770 1035 1142 141 277 193 481 193 764
0 126 -5 182 -22 262 -48 227 -132 400 -277 567 -513 592 -1510 605 -2072 27
l-83 -85 -77 76 c-214 211 -471 349 -761 408 -115 23 -314 32 -428 19z m407
-307 c287 -77 513 -228 741 -499 76 -90 110 -108 154 -79 13 9 57 58 98 109
172 216 386 368 627 445 118 38 219 52 363 52 141 0 210 -11 337 -55 269 -91
482 -274 590 -507 81 -174 110 -402 76 -593 -82 -468 -440 -939 -1116 -1467
-238 -186 -481 -349 -832 -562 -160 -97 -179 -106 -200 -95 -13 7 -97 59 -188
117 -614 392 -950 651 -1306 1006 -272 273 -403 449 -508 685 -50 112 -91 245
-107 351 -16 106 -6 305 20 405 95 358 395 627 784 701 105 20 369 12 467 -14z
m2975 -112 c10 -11 16 -20 13 -20 -3 0 -13 9 -23 20 -10 11 -16 20 -13 20 3 0
13 -9 23 -20z m-4215 6 c0 -2 -8 -10 -17 -17 -16 -13 -17 -12 -4 4 13 16 21
21 21 13z"/>
<path d="M4080 5385 c-217 -48 -410 -232 -465 -441 -21 -82 -19 -233 4 -326
67 -260 259 -496 627 -770 99 -73 301 -205 378 -246 l39 -21 41 21 c38 19 207
130 319 208 l47 34 -27 25 c-16 14 -71 67 -123 118 l-95 92 -83 -65 c-48 -39
-88 -64 -97 -60 -8 3 -68 41 -133 85 -310 207 -515 414 -592 596 -21 50 -25
76 -25 155 0 111 19 162 88 233 68 70 125 91 237 92 132 0 194 -30 323 -154
123 -119 122 -119 241 -1 112 112 186 153 287 158 106 6 170 -18 244 -92 34
-34 72 -83 84 -111 60 -128 27 -298 -88 -443 -23 -28 -41 -56 -41 -61 0 -10
183 -183 200 -189 17 -6 134 154 176 243 56 116 74 188 74 296 0 276 -170 519
-427 610 -82 29 -254 37 -347 15 -82 -19 -170 -64 -231 -118 l-44 -39 -53 41
c-65 49 -138 86 -209 106 -81 22 -251 27 -329 9z"/>
<path d="M5853 5385 c-60 -13 -166 -59 -207 -90 -18 -13 -17 -16 20 -58 29
-34 91 -135 100 -164 0 -2 27 7 60 19 86 32 250 33 315 0 187 -92 257 -292
169 -480 -93 -199 -301 -398 -636 -608 l-80 -51 -115 96 c-62 52 -195 176
-294 276 -204 203 -245 262 -245 353 0 40 7 60 33 98 36 54 134 125 210 152
26 9 47 20 47 24 0 12 -100 38 -145 38 -89 0 -138 -24 -230 -115 -95 -94 -144
-124 -205 -127 l-40 -1 0 -52 c0 -156 94 -314 336 -564 269 -278 579 -541 639
-541 40 0 290 157 490 309 147 111 337 305 417 426 106 161 137 249 145 415 6
134 -9 216 -59 319 -42 86 -158 204 -252 256 -136 76 -321 103 -473 70z"/>
</g>
</svg>
